<svg width="182" height="28" viewBox="0 0 182 28" fill="none" xmlns="http://www.w3.org/2000/svg">
<g clip-path="url(#clip0_292_79)">
<path d="M15.0593 0.414062L19.8994 8.66622L29.2983 10.6874L22.8907 17.8086L23.8595 27.3099L15.0593 23.4589L6.25912 27.3099L7.22785 17.8086L0.820312 10.6874L10.2192 8.66622L15.0593 0.414062Z" fill="#FABD6B"/>
<path d="M53.0297 0.414062L57.8698 8.66622L67.2687 10.6874L60.8612 17.8086L61.8299 27.3099L53.0297 23.4589L44.2296 27.3099L45.1983 17.8086L38.7908 10.6874L48.1897 8.66622L53.0297 0.414062Z" fill="#626262"/>
<path d="M91 0.414062L95.8401 8.66622L105.239 10.6874L98.8314 17.8086L99.8001 27.3099L91 23.4589L82.1998 27.3099L83.1685 17.8086L76.761 10.6874L86.1599 8.66622L91 0.414062Z" fill="#626262"/>
<path d="M128.971 0.414062L133.811 8.66622L143.21 10.6874L136.802 17.8086L137.771 27.3099L128.971 23.4589L120.17 27.3099L121.139 17.8086L114.732 10.6874L124.131 8.66622L128.971 0.414062Z" fill="#626262"/>
<path d="M166.941 0.414062L171.781 8.66622L181.18 10.6874L174.773 17.8086L175.741 27.3099L166.941 23.4589L158.141 27.3099L159.11 17.8086L152.702 10.6874L162.101 8.66622L166.941 0.414062Z" fill="#626262"/>
</g>
<defs>
<clipPath id="clip0_292_79">
<rect width="182" height="28" fill="white"/>
</clipPath>
</defs>
</svg>
