<svg width="183" height="28" viewBox="0 0 183 28" fill="none" xmlns="http://www.w3.org/2000/svg">
<g clip-path="url(#clip0_292_73)">
<path d="M15.1636 0.0625L20.0391 8.3751L29.5068 10.411L23.0524 17.5844L24.0282 27.1553L15.1636 23.2761L6.29895 27.1553L7.27478 17.5844L0.820312 10.411L10.288 8.3751L15.1636 0.0625Z" fill="#FABD6B"/>
<path d="M53.4124 0.0625L58.2879 8.3751L67.7556 10.411L61.3012 17.5844L62.277 27.1553L53.4124 23.2761L44.5477 27.1553L45.5236 17.5844L39.0691 10.411L48.5368 8.3751L53.4124 0.0625Z" fill="#FABD6B"/>
<path d="M91.6606 0.0625L96.5362 8.3751L106.004 10.411L99.5494 17.5844L100.525 27.1553L91.6606 23.2761L82.796 27.1553L83.7719 17.5844L77.3174 10.411L86.7851 8.3751L91.6606 0.0625Z" fill="#FABD6B"/>
<path d="M129.909 0.0625L134.785 8.3751L144.252 10.411L137.798 17.5844L138.774 27.1553L129.909 23.2761L121.045 27.1553L122.02 17.5844L115.566 10.411L125.034 8.3751L129.909 0.0625Z" fill="#626262"/>
<path d="M168.158 0.0625L173.034 8.3751L182.501 10.411L176.047 17.5844L177.023 27.1553L168.158 23.2761L159.293 27.1553L160.269 17.5844L153.815 10.411L163.282 8.3751L168.158 0.0625Z" fill="#626262"/>
</g>
<defs>
<clipPath id="clip0_292_73">
<rect width="183" height="28" fill="white"/>
</clipPath>
</defs>
</svg>
