<svg width="182" height="28" viewBox="0 0 182 28" fill="none" xmlns="http://www.w3.org/2000/svg">
<g clip-path="url(#clip0_292_67)">
<path d="M15.124 0.169922L19.9861 8.45958L29.4277 10.4899L22.991 17.6435L23.9642 27.188L15.124 23.3195L6.28384 27.188L7.25698 17.6435L0.820312 10.4899L10.2619 8.45958L15.124 0.169922Z" fill="#FABD6B"/>
<path d="M53.2673 0.169922L58.1294 8.45958L67.571 10.4899L61.1344 17.6435L62.1075 27.188L53.2673 23.3195L44.4271 27.188L45.4003 17.6435L38.9636 10.4899L48.4052 8.45958L53.2673 0.169922Z" fill="#FABD6B"/>
<path d="M91.4099 0.169922L96.272 8.45958L105.714 10.4899L99.2769 17.6435L100.25 27.188L91.4099 23.3195L82.5697 27.188L83.5429 17.6435L77.1062 10.4899L86.5478 8.45958L91.4099 0.169922Z" fill="#FABD6B"/>
<path d="M129.553 0.169922L134.416 8.45958L143.857 10.4899L137.42 17.6435L138.394 27.188L129.553 23.3195L120.713 27.188L121.686 17.6435L115.25 10.4899L124.691 8.45958L129.553 0.169922Z" fill="#FABD6B"/>
<path d="M167.696 0.169922L172.558 8.45958L182 10.4899L175.563 17.6435L176.536 27.188L167.696 23.3195L158.856 27.188L159.829 17.6435L153.393 10.4899L162.834 8.45958L167.696 0.169922Z" fill="#626262"/>
</g>
<defs>
<clipPath id="clip0_292_67">
<rect width="182" height="28" fill="white"/>
</clipPath>
</defs>
</svg>
