<svg width="182" height="28" viewBox="0 0 182 28" fill="none" xmlns="http://www.w3.org/2000/svg">
<g clip-path="url(#clip0_292_61)">
<path d="M14.3042 0L19.1663 8.28967L28.6079 10.32L22.1712 17.4736L23.1444 27.0181L14.3042 23.1496L5.46402 27.0181L6.43715 17.4736L0.000488281 10.32L9.44209 8.28967L14.3042 0Z" fill="#FABD6B"/>
<path d="M52.4475 0L57.3096 8.28967L66.7512 10.32L60.3145 17.4736L61.2877 27.0181L52.4475 23.1496L43.6073 27.0181L44.5805 17.4736L38.1438 10.32L47.5854 8.28967L52.4475 0Z" fill="#FABD6B"/>
<path d="M90.5901 0L95.4522 8.28967L104.894 10.32L98.4571 17.4736L99.4302 27.0181L90.5901 23.1496L81.7499 27.0181L82.723 17.4736L76.2864 10.32L85.728 8.28967L90.5901 0Z" fill="#FABD6B"/>
<path d="M128.734 0L133.596 8.28967L143.037 10.32L136.601 17.4736L137.574 27.0181L128.734 23.1496L119.893 27.0181L120.867 17.4736L114.43 10.32L123.872 8.28967L128.734 0Z" fill="#FABD6B"/>
<path d="M166.877 0L171.739 8.28967L181.181 10.32L174.744 17.4736L175.717 27.0181L166.877 23.1496L158.037 27.0181L159.01 17.4736L152.573 10.32L162.015 8.28967L166.877 0Z" fill="#FABD6B"/>
</g>
<defs>
<clipPath id="clip0_292_61">
<rect width="182" height="28" fill="white"/>
</clipPath>
</defs>
</svg>
