<svg width="38" height="24" viewBox="0 0 38 24" fill="none" xmlns="http://www.w3.org/2000/svg">
<g clip-path="url(#clip0_50_724)">
<path d="M34.3874 0H3.61312C3.48493 0 3.35651 0 3.22854 0.00067947C3.1205 0.00158543 3.01269 0.00271788 2.90466 0.00566225C2.66934 0.012004 2.43197 0.0260463 2.1996 0.0677205C1.96655 0.107648 1.74075 0.182074 1.52964 0.288548C1.10523 0.504411 0.76027 0.849374 0.544408 1.27378C0.437744 1.48497 0.363309 1.71095 0.32358 1.94419C0.281453 2.17679 0.267637 2.41393 0.261295 2.64903C0.258535 2.75697 0.256874 2.86493 0.256312 2.97291C0.255859 3.10065 0.255859 3.22884 0.255859 3.35726V20.6425C0.255859 20.7709 0.255859 20.8989 0.256312 21.0273C0.256992 21.1351 0.258351 21.2432 0.261295 21.3512C0.267637 21.5858 0.281679 21.8232 0.32358 22.0556C0.363227 22.2888 0.437586 22.5148 0.544181 22.726C0.651352 22.9369 0.791243 23.1296 0.958657 23.2967C1.12579 23.4642 1.31843 23.6041 1.52941 23.7112C1.7439 23.8206 1.96359 23.8902 2.19982 23.9325C2.43197 23.974 2.66934 23.988 2.90466 23.9943C3.01269 23.9968 3.1205 23.9982 3.22854 23.9989C3.35651 23.9998 3.48493 23.9998 3.61312 23.9998H34.3874C34.5154 23.9998 34.6438 23.9998 34.7718 23.9989C34.8796 23.9984 34.9874 23.9968 35.0959 23.9943C35.3308 23.988 35.5681 23.974 35.801 23.9325C36.0341 23.8925 36.2599 23.818 36.4709 23.7112C36.8951 23.4951 37.24 23.1502 37.4561 22.726C37.5655 22.5115 37.6348 22.2918 37.6767 22.0556C37.7189 21.8232 37.7325 21.5858 37.7388 21.3512C37.7417 21.2432 37.7433 21.1351 37.7438 21.0273C37.7447 20.8989 37.7447 20.7709 37.7447 20.6425V3.35749C37.7447 3.22907 37.7447 3.10087 37.7438 2.97268C37.7433 2.86478 37.7417 2.75689 37.7388 2.64903C37.7325 2.41393 37.7189 2.17679 37.6767 1.94419C37.6373 1.71091 37.5629 1.4849 37.4561 1.27378C37.2402 0.849448 36.8952 0.504513 36.4709 0.288548C36.2598 0.182184 36.034 0.107836 35.801 0.067947C35.5681 0.0260463 35.3308 0.0122305 35.0959 0.00588874C34.9879 0.00314533 34.8798 0.00148432 34.7718 0.000905959C34.6438 0 34.5154 0 34.3874 0Z" fill="black"/>
<path d="M34.3873 0.800781L34.766 0.801461C34.8683 0.80214 34.9709 0.803273 35.074 0.805991C35.2536 0.810973 35.4633 0.820712 35.659 0.855818C35.8289 0.886394 35.9716 0.932825 36.1084 1.00258C36.3821 1.14178 36.6045 1.36442 36.7434 1.63834C36.8128 1.77423 36.859 1.91602 36.8895 2.08747C36.9244 2.28089 36.9342 2.4913 36.9389 2.67181C36.9419 2.77373 36.9432 2.87566 36.9434 2.97984C36.9446 3.106 36.9446 3.23192 36.9446 3.35831V20.6436C36.9446 20.7699 36.9446 20.8959 36.9437 21.0245C36.9432 21.1264 36.9418 21.2284 36.9391 21.3303C36.9341 21.5106 36.9244 21.721 36.8891 21.9167C36.8634 22.0723 36.8141 22.2232 36.743 22.364C36.6038 22.638 36.3811 22.8606 36.107 22.9997C35.9711 23.069 35.8289 23.1155 35.6606 23.1458C35.4611 23.1814 35.2423 23.1911 35.0776 23.1956C34.9741 23.1979 34.8711 23.1995 34.7653 23.2C34.6396 23.2009 34.5132 23.2009 34.3873 23.2009H3.60798C3.48341 23.2009 3.35884 23.2009 3.232 23.2C3.13007 23.1995 3.02815 23.1982 2.92624 23.1959C2.75774 23.1913 2.53895 23.1814 2.34099 23.146C2.18449 23.12 2.03283 23.0703 1.89119 22.9988C1.75532 22.9298 1.63131 22.8396 1.52382 22.7316C1.41599 22.6239 1.32593 22.4999 1.25701 22.364C1.18584 22.2224 1.13651 22.0708 1.1107 21.9144C1.07537 21.7189 1.0654 21.5094 1.06087 21.3305C1.05831 21.2282 1.0568 21.1259 1.05634 21.0236L1.05566 20.7231V3.27903L1.05612 2.97893C1.05658 2.87647 1.05809 2.77402 1.06065 2.67159C1.06563 2.49221 1.07537 2.2827 1.11093 2.08566C1.13679 1.92958 1.18612 1.7783 1.25724 1.63698C1.32609 1.50154 1.41578 1.37788 1.5245 1.26939C1.63225 1.16147 1.75639 1.07127 1.89232 1.00213C2.03362 0.931144 2.18479 0.881821 2.34077 0.855818C2.53668 0.820712 2.74664 0.810973 2.92647 0.805991C3.02884 0.803273 3.13144 0.80214 3.23314 0.801461L3.61296 0.800781H34.3873" fill="white"/>
<path d="M10.1097 8.10171C10.4277 7.70422 10.6433 7.17039 10.5864 6.625C10.1212 6.6481 9.55363 6.93189 9.22477 7.32984C8.92965 7.67048 8.66851 8.22651 8.73646 8.74902C9.25874 8.79432 9.78058 8.48811 10.1097 8.10171Z" fill="black"/>
<path d="M10.5804 8.8507C9.82162 8.8054 9.17703 9.28103 8.81487 9.28103C8.45249 9.28103 7.89782 8.87335 7.29784 8.88445C6.51713 8.89577 5.79282 9.33742 5.39646 10.0395C4.58155 11.4438 5.1813 13.5275 5.97401 14.6713C6.35882 15.2375 6.82267 15.8603 7.43374 15.8379C8.01129 15.8153 8.23755 15.4642 8.93922 15.4642C9.64065 15.4642 9.8445 15.8379 10.4558 15.8266C11.0895 15.8153 11.4859 15.2604 11.8707 14.6941C12.3123 14.0486 12.4928 13.4258 12.5042 13.3918C12.4928 13.3805 11.282 12.916 11.2707 11.5231C11.2594 10.3566 12.2215 9.80173 12.2668 9.76753C11.7235 8.96394 10.8746 8.87335 10.5801 8.8507" fill="black"/>
<path d="M18.1419 7.27344C19.7903 7.27344 20.9384 8.40974 20.9384 10.064C20.9384 11.7242 19.7668 12.8664 18.1007 12.8664H16.2757V15.7691H14.957V7.27344H18.1419ZM16.2757 11.7595H17.7886C18.9369 11.7595 19.5901 11.1414 19.5901 10.0699C19.5901 8.99861 18.9367 8.38618 17.7945 8.38618H16.2757V11.7595Z" fill="black"/>
<path d="M21.2656 14.0095C21.2656 12.9203 22.0957 12.2963 23.6263 12.2021L25.2688 12.102V11.6309C25.2688 10.9424 24.8156 10.5655 24.0091 10.5655C23.3437 10.5655 22.8608 10.9068 22.7611 11.4307H21.5716C21.6072 10.3299 22.6431 9.5293 24.0444 9.5293C25.5515 9.5293 26.5347 10.3182 26.5347 11.5428V15.7698H25.3162V14.7512H25.2867C24.9393 15.4164 24.1738 15.8343 23.3437 15.8343C22.1193 15.8343 21.2656 15.1046 21.2656 14.0095V14.0095ZM25.2688 13.4621V12.9851L23.803 13.0793C22.9786 13.1323 22.5491 13.4383 22.5491 13.9739C22.5491 14.4921 22.9965 14.8278 23.697 14.8278C24.5916 14.8278 25.2688 14.2566 25.2688 13.4621V13.4621Z" fill="black"/>
<path d="M27.6554 18.0418V17.0235C27.7378 17.035 27.9378 17.0468 28.0438 17.0468C28.6266 17.0468 28.9564 16.7999 29.1566 16.1637L29.2743 15.7871L27.043 9.60547H28.4205L29.9749 14.6213H30.0043L31.5585 9.60547H32.9009L30.5871 16.0989C30.0571 17.5886 29.4508 18.0773 28.1675 18.0773C28.0674 18.0773 27.7435 18.0655 27.6554 18.0418V18.0418Z" fill="black"/>
</g>
<defs>
<clipPath id="clip0_50_724">
<rect width="38" height="24" fill="white"/>
</clipPath>
</defs>
</svg>
