<svg width="17" height="9" viewBox="0 0 17 9" fill="none" xmlns="http://www.w3.org/2000/svg">
<path d="M8.52142 8.67099C8.31912 8.67197 8.11857 8.63968 7.93128 8.57598C7.74399 8.51229 7.57364 8.41844 7.43001 8.29981L1.28118 3.18003C0.99172 2.93901 0.829102 2.61212 0.829102 2.27127C0.829102 1.93041 0.99172 1.60352 1.28118 1.3625C1.57064 1.12149 1.96324 0.986084 2.3726 0.986084C2.78196 0.986084 3.17455 1.12149 3.46401 1.3625L8.52142 5.58633L13.5788 1.3753C13.8729 1.16562 14.2512 1.05604 14.638 1.06849C15.0249 1.08093 15.3919 1.21447 15.6657 1.44242C15.9395 1.67037 16.0998 1.97594 16.1148 2.29808C16.1297 2.62021 15.9981 2.93517 15.7463 3.18003L9.59747 8.29981C9.31115 8.53627 8.92469 8.66958 8.52142 8.67099Z" fill="#2EA146"/>
</svg>
