<svg width="9" height="9" viewBox="0 0 9 9" fill="none" xmlns="http://www.w3.org/2000/svg">
<path d="M2.77234 3.4541H1.10156V8.78211H2.77234V3.4541Z" fill="#2EA246"/>
<path d="M7.29219 3.3386C7.23059 3.3309 7.16515 3.32705 7.0997 3.3232C6.16422 3.2847 5.63681 3.83906 5.45203 4.07774C5.40198 4.14319 5.37888 4.18168 5.37888 4.18168V3.46949H3.78125V8.79749H5.37888H5.45203C5.45203 8.25468 5.45203 7.71572 5.45203 7.17291C5.45203 6.88033 5.45203 6.58775 5.45203 6.29518C5.45203 5.9333 5.42508 5.54833 5.60602 5.21726C5.76 4.94008 6.03718 4.80149 6.34901 4.80149C7.27294 4.80149 7.29219 5.63687 7.29219 5.71387C7.29219 5.71772 7.29219 5.72157 7.29219 5.72157V8.82059H8.96297V5.3443C8.96297 4.15473 8.35856 3.45409 7.29219 3.3386Z" fill="#2EA246"/>
<path d="M1.93692 2.76545C2.47271 2.76545 2.90705 2.33111 2.90705 1.79532C2.90705 1.25954 2.47271 0.825195 1.93692 0.825195C1.40114 0.825195 0.966797 1.25954 0.966797 1.79532C0.966797 2.33111 1.40114 2.76545 1.93692 2.76545Z" fill="#2EA246"/>
</svg>
