<svg width="26" height="36" viewBox="0 0 26 36" fill="none" xmlns="http://www.w3.org/2000/svg">
<path d="M4.64262 12.7726C4.63919 13.8545 4.85333 14.9262 5.2723 15.9237C5.69128 16.9213 6.30653 17.8244 7.0815 18.5794C7.19162 18.6872 7.34005 18.7469 7.49414 18.7453C7.64823 18.7436 7.79537 18.6808 7.90317 18.5707C8.01098 18.4606 8.07062 18.3122 8.06899 18.1581C8.06736 18.004 8.00458 17.8569 7.89446 17.7491C6.63076 16.5031 5.89008 14.8219 5.82353 13.0484C5.75698 11.275 6.36958 9.54303 7.53635 8.20583C8.70311 6.86863 10.3361 6.02699 12.1022 5.85262C13.8683 5.67826 15.6343 6.1843 17.0401 7.26751C18.4458 8.35072 19.3853 9.92947 19.6668 11.6817C19.9484 13.4338 19.5508 15.2274 18.5551 16.6965C17.5595 18.1656 16.0409 19.1994 14.3091 19.5871C12.5773 19.9748 10.7628 19.6871 9.23584 18.7827C9.10485 18.7235 8.95655 18.715 8.81964 18.7588C8.68273 18.8026 8.56694 18.8957 8.49469 19.02C8.42244 19.1442 8.39885 19.2909 8.42849 19.4316C8.45813 19.5722 8.5389 19.6969 8.65516 19.7815C10.2006 20.6891 12.0026 21.0606 13.781 20.8382C15.5594 20.6158 17.2144 19.812 18.4888 18.5517C19.7631 17.2915 20.5852 15.6454 20.8273 13.8696C21.0694 12.0938 20.7179 10.2878 19.8275 8.73238C18.937 7.17699 17.5575 5.95945 15.9036 5.26911C14.2496 4.57878 12.4139 4.45435 10.6819 4.91518C8.94993 5.376 7.41877 6.39625 6.32658 7.81725C5.23438 9.23825 4.64237 10.9803 4.64262 12.7726Z" fill="#2EA146"/>
<path d="M16.21 11.8783C16.1585 11.7257 16.0655 11.5905 15.9413 11.4879C15.8172 11.3853 15.6669 11.3194 15.5073 11.2976L14.1544 11.1059L13.5737 9.81101C13.5047 9.66025 13.3939 9.53247 13.2544 9.44288C13.1149 9.35329 12.9526 9.30566 12.7868 9.30566C12.6211 9.30566 12.4588 9.35329 12.3193 9.44288C12.1798 9.53247 12.069 9.66025 12 9.81101L11.4193 11.1059L10.0663 11.2976C9.90677 11.3194 9.75647 11.3853 9.63234 11.4879C9.5082 11.5905 9.41516 11.7257 9.36369 11.8783C9.31016 12.0301 9.29918 12.1937 9.33194 12.3513C9.36469 12.5089 9.43993 12.6546 9.54951 12.7725L10.5541 13.7713L10.3044 15.2056C10.2741 15.3709 10.2919 15.5414 10.3557 15.6968C10.4195 15.8523 10.5267 15.9861 10.6644 16.0824C10.797 16.1768 10.9538 16.2314 11.1164 16.2396C11.2789 16.2478 11.4405 16.2094 11.5819 16.1289L12.7723 15.4727L13.9685 16.1463C14.11 16.2268 14.2715 16.2653 14.4341 16.257C14.5966 16.2488 14.7534 16.1943 14.886 16.0998C15.0237 16.0036 15.1309 15.8697 15.1947 15.7143C15.2585 15.5588 15.2764 15.3883 15.246 15.223L14.9963 13.7887L15.9951 12.7725C16.1097 12.6576 16.1903 12.5133 16.2282 12.3556C16.2661 12.1978 16.2598 12.0327 16.21 11.8783ZM13.9337 13.179C13.8675 13.2448 13.8182 13.3256 13.7899 13.4146C13.7616 13.5036 13.7551 13.598 13.7711 13.69L13.9685 14.8514L13.0278 14.3229C12.9395 14.272 12.8394 14.2451 12.7375 14.2451C12.6355 14.2451 12.5354 14.272 12.4471 14.3229L11.5064 14.8514L11.7039 13.69C11.7291 13.6035 11.7338 13.5122 11.7177 13.4235C11.7016 13.3348 11.665 13.2511 11.6109 13.179L10.7864 12.3544L11.8897 12.1976C11.9859 12.1843 12.0773 12.147 12.1555 12.0892C12.2336 12.0313 12.2959 11.9548 12.3368 11.8666L12.7723 10.8679L13.2311 11.8666C13.2719 11.9548 13.3343 12.0313 13.4124 12.0892C13.4905 12.147 13.5819 12.1843 13.6782 12.1976L14.7815 12.3544L13.9337 13.179Z" fill="#2EA146"/>
<path d="M18.8114 2.84858L19.2759 3.14473C19.4037 3.23098 19.5606 3.26291 19.712 3.23351C19.8633 3.2041 19.9968 3.11577 20.0831 2.98795C20.1693 2.86012 20.2013 2.70327 20.1718 2.5519C20.1424 2.40053 20.0541 2.26704 19.9263 2.18079L19.4153 1.85561C19.3501 1.81596 19.2777 1.78953 19.2023 1.77785C19.1269 1.76616 19.0499 1.76945 18.9758 1.78751C18.9016 1.80557 18.8318 1.83807 18.7702 1.88313C18.7086 1.92819 18.6565 1.98494 18.6168 2.05014C18.5368 2.18182 18.5123 2.33991 18.5487 2.48965C18.5852 2.63939 18.6797 2.7685 18.8114 2.84858Z" fill="#2EA146"/>
<path d="M20.6225 22.8417C22.1155 21.6774 23.3311 20.1958 24.1813 18.5041C25.0315 16.8124 25.495 14.9528 25.5384 13.06C25.5817 11.1671 25.2038 9.28831 24.4319 7.55944C23.6601 5.83058 22.5136 4.2949 21.0754 3.06349C20.9584 2.96339 20.8063 2.91388 20.6528 2.92586C20.4992 2.93783 20.3567 3.01032 20.2566 3.12737C20.1565 3.24441 20.107 3.39643 20.119 3.54998C20.131 3.70353 20.2035 3.84603 20.3205 3.94613C22.5365 5.84859 23.9512 8.51853 24.2809 11.4204C24.6107 14.3224 23.831 17.2416 22.0984 19.5928C20.3658 21.9439 17.8083 23.553 14.9388 24.0973C12.0694 24.6417 9.10032 24.081 6.62701 22.5278C4.1537 20.9745 2.3591 18.5436 1.60316 15.7225C0.847222 12.9015 1.18584 9.89891 2.55111 7.31707C3.91637 4.73524 6.20732 2.76506 8.96444 1.8017C11.7216 0.838333 14.741 0.953029 17.4171 2.12278C17.5563 2.17509 17.7103 2.17199 17.8473 2.11413C17.9843 2.05627 18.0938 1.94806 18.1534 1.8118C18.213 1.67554 18.218 1.52161 18.1674 1.38176C18.1169 1.24191 18.0146 1.12679 17.8816 1.06012C15.0306 -0.179902 11.8253 -0.337696 8.86623 0.616314C5.9072 1.57032 3.39763 3.57065 1.80781 6.24244C0.217989 8.91422 -0.342956 12.0741 0.2301 15.1298C0.803155 18.1856 2.47087 20.9274 4.92072 22.8417L2.78961 26.4129C2.71109 26.5453 2.68839 26.7035 2.7265 26.8527C2.76461 27.0019 2.86042 27.1299 2.99285 27.2084C3.08248 27.2616 3.18477 27.2897 3.289 27.2897C3.38977 27.2897 3.48881 27.2634 3.57636 27.2136C3.66392 27.1637 3.73699 27.0919 3.78839 27.0052L5.87305 23.5211C7.92919 24.8473 10.3248 25.5511 12.7716 25.5477L7.54542 34.2579L5.73368 31.0526C5.68474 30.9718 5.61685 30.9043 5.53591 30.8557C5.45496 30.8071 5.36339 30.779 5.26914 30.7738L1.58759 30.7041L2.81864 28.6427C2.87784 28.5117 2.88635 28.3634 2.84252 28.2265C2.79869 28.0896 2.70563 27.9738 2.58135 27.9016C2.45707 27.8293 2.31041 27.8057 2.16975 27.8354C2.02908 27.865 1.90441 27.9458 1.81986 28.062L0.0778036 30.9655C0.0269835 31.0535 0.000155099 31.1533 6.7047e-07 31.2549C-0.000153758 31.3566 0.0263712 31.4565 0.0769237 31.5446C0.127476 31.6328 0.200285 31.7062 0.288075 31.7574C0.375864 31.8086 0.475559 31.8359 0.577193 31.8365L4.91492 31.9352L7.05184 35.7213C7.10344 35.806 7.1759 35.8762 7.26231 35.925C7.34872 35.9737 7.44619 35.9996 7.54542 36C7.6462 36 7.74523 35.9737 7.83279 35.9239C7.92035 35.874 7.99342 35.8021 8.04482 35.7155L14.1711 25.4722C16.1333 25.257 18.0182 24.5869 19.676 23.5153L23.9556 30.6925L20.2741 30.7738C20.1731 30.776 20.0745 30.8045 19.988 30.8564C19.9014 30.9084 19.8299 30.982 19.7805 31.07L17.9978 34.2579L14.5137 28.4162C14.4291 28.3 14.3044 28.2192 14.1638 28.1896C14.0231 28.1599 13.8764 28.1835 13.7522 28.2558C13.6279 28.328 13.5348 28.4438 13.491 28.5807C13.4472 28.7176 13.4557 28.8659 13.5149 28.9969L17.51 35.698C17.5582 35.7863 17.6285 35.8605 17.714 35.9135C17.7995 35.9664 17.8973 35.9962 17.9978 36C18.0997 35.9988 18.1995 35.9708 18.2871 35.9188C18.3748 35.8668 18.4472 35.7927 18.4972 35.7038L20.6283 31.9352L24.966 31.8365C25.0675 31.8344 25.1667 31.8058 25.2537 31.7535C25.3407 31.7012 25.4125 31.6269 25.4618 31.5382C25.5112 31.4495 25.5364 31.3494 25.535 31.2479C25.5336 31.1463 25.5056 31.047 25.4538 30.9596L20.6225 22.8417Z" fill="#2EA146"/>
</svg>
