<svg width="32" height="31" viewBox="0 0 32 31" fill="none" xmlns="http://www.w3.org/2000/svg">
<path d="M14.405 30.9999H23.2948C23.687 30.9999 23.9485 30.7384 23.9485 30.3462V28.6467C24.6675 27.7316 25.0597 26.6203 25.0597 25.5091V22.11V18.4495C25.0597 17.3383 24.1446 16.4232 23.0333 16.4232C22.7065 16.4232 22.3797 16.4885 22.0528 16.6846C21.726 16.031 21.007 15.5734 20.2226 15.5734C19.8304 15.5734 19.5036 15.7041 19.1767 15.9002C18.7845 15.3119 18.1962 14.9197 17.4118 14.9197C17.1504 14.9197 16.8889 14.9851 16.6928 15.0505V11.9783C16.6928 10.867 15.7777 9.9519 14.6664 9.9519C13.5552 9.9519 12.6401 10.867 12.6401 11.9783V18.6456L10.7445 20.672C9.96007 21.4564 9.56787 22.5676 9.6986 23.6788C9.76397 24.7901 10.3523 25.8359 11.2674 26.4896L13.7513 28.3852V30.4769C13.7513 30.7384 14.0128 30.9999 14.405 30.9999ZM11.9864 25.3784C11.3981 24.9208 11.0059 24.2671 10.9406 23.4827C10.8752 22.7637 11.1367 21.9793 11.6596 21.4564L12.5747 20.4759V22.5676C12.5747 22.9598 12.8362 23.2213 13.2284 23.2213C13.6206 23.2213 13.882 22.9598 13.882 22.5676V11.9129C13.882 11.5207 14.2089 11.1939 14.6011 11.1939C14.9933 11.1939 15.3201 11.5207 15.3201 11.9129V16.9461V20.2798C15.3201 20.672 15.5816 20.9335 15.9738 20.9335C16.366 20.9335 16.6274 20.672 16.6274 20.2798V16.9461C16.6274 16.5539 16.9543 16.2271 17.3465 16.2271C17.7387 16.2271 18.0655 16.5539 18.0655 16.9461V17.5998V20.2798C18.0655 20.672 18.327 20.9335 18.7192 20.9335C19.1114 20.9335 19.3728 20.672 19.3728 20.2798V17.5998C19.3728 17.2076 19.6997 16.8807 20.0919 16.8807C20.4841 16.8807 20.8109 17.2076 20.8109 17.5998V18.5149V20.2798C20.8109 20.672 21.0724 20.9335 21.4646 20.9335C21.8567 20.9335 22.1182 20.672 22.1182 20.2798V18.5149C22.1182 18.1227 22.445 17.7959 22.8372 17.7959C23.2294 17.7959 23.5563 18.1227 23.5563 18.5149V22.1754V25.5745C23.5563 26.4896 23.2294 27.4047 22.6411 28.0584C22.5104 28.1891 22.445 28.3199 22.445 28.516V29.7579H15.0586V27.993C15.0586 27.7969 14.9933 27.6008 14.7972 27.4701L11.9864 25.3784Z" fill="#2EA146"/>
<path d="M1.85477 10.4095L1.46257 12.6973C1.39721 12.9587 1.52794 13.2202 1.72404 13.3509C1.92014 13.4817 2.1816 13.547 2.44307 13.4163L4.46942 12.3051L6.49578 13.4163C6.56115 13.4817 6.69188 13.4817 6.82261 13.4817C6.95335 13.4817 7.08408 13.4163 7.21481 13.3509C7.41091 13.2202 7.54164 12.9587 7.47628 12.6973L7.08408 10.4095L8.71824 8.7753C8.91434 8.5792 8.9797 8.31774 8.91434 8.12164C8.84897 7.86017 8.65287 7.72944 8.39141 7.66407L6.10358 7.33724L5.05772 5.24552C4.86162 4.78795 4.07723 4.78795 3.88113 5.24552L2.83527 7.33724L0.547443 7.66407C0.285977 7.72944 0.0898788 7.86017 0.0245125 8.12164C-0.0408539 8.3831 0.024512 8.64457 0.220611 8.7753L1.85477 10.4095ZM3.3582 8.5792C3.5543 8.5792 3.75039 8.3831 3.88113 8.25237L4.46942 7.07578L5.05772 8.25237C5.12309 8.44847 5.31919 8.5792 5.58065 8.5792L6.88798 8.7753L5.90749 9.69043C5.77675 9.82116 5.71139 10.0826 5.71139 10.2787L5.90749 11.5861L4.73089 10.9324C4.66552 10.867 4.53479 10.867 4.40406 10.867C4.27333 10.867 4.20796 10.867 4.07723 10.9324L2.90063 11.5861L3.09673 10.2787C3.1621 10.0826 3.03136 9.82116 2.90063 9.69043L1.92014 8.7753L3.3582 8.5792Z" fill="#2EA146"/>
<path d="M20.0926 3.21929C20.0272 2.95783 19.8311 2.8271 19.5696 2.76173L17.2818 2.4349L16.2359 0.343173C16.0398 -0.114391 15.2554 -0.114391 15.0594 0.343173L14.0135 2.4349L11.7257 2.76173C11.4642 2.8271 11.2681 2.95783 11.2027 3.21929C11.1374 3.48076 11.2027 3.74222 11.3988 3.87296L13.033 5.50712L12.6408 7.79494C12.5754 8.05641 12.7062 8.31787 12.9023 8.4486C13.0984 8.57934 13.3598 8.6447 13.6213 8.51397L15.6476 7.40274L17.674 8.51397C17.7394 8.57933 17.8701 8.57934 18.0008 8.57934C18.1316 8.57934 18.2623 8.51397 18.393 8.4486C18.5891 8.31787 18.7199 8.05641 18.6545 7.79494L18.2623 5.50712L19.8965 3.87296C20.0926 3.67686 20.1579 3.41539 20.0926 3.21929ZM17.0857 4.78809C16.955 4.91882 16.8896 5.18028 16.8896 5.37638L17.0857 6.68371L15.9091 6.03005C15.8437 5.96468 15.713 5.96468 15.5823 5.96468C15.4515 5.96468 15.3862 5.96468 15.2554 6.03005L14.0789 6.68371L14.275 5.37638C14.3403 5.18028 14.2096 4.91882 14.0789 4.78809L13.0984 3.87296L14.4057 3.67686C14.6018 3.67686 14.7979 3.48076 14.9286 3.35003L15.5169 2.17343L16.1052 3.35003C16.1706 3.54613 16.3667 3.67686 16.6281 3.67686L17.9355 3.87296L17.0857 4.78809Z" fill="#2EA146"/>
<path d="M30.7469 7.66407L28.4591 7.33724L27.4132 5.24552C27.2171 4.78795 26.4327 4.78795 26.2366 5.24552L25.1907 7.33724L22.9029 7.66407C22.6414 7.72944 22.4453 7.86017 22.38 8.12164C22.3146 8.3831 22.38 8.64457 22.5761 8.7753L24.2102 10.4095L23.818 12.6973C23.7527 12.9587 23.8834 13.2202 24.0795 13.3509C24.2756 13.4817 24.5371 13.547 24.7985 13.4163L26.8249 12.3051L28.8513 13.4163C28.9166 13.4817 29.0474 13.4817 29.1781 13.4817C29.3088 13.4817 29.4395 13.4163 29.5703 13.3509C29.7664 13.2202 29.8971 12.9587 29.8317 12.6973L29.4395 10.4095L31.0737 8.7753C31.2698 8.5792 31.3352 8.31774 31.2698 8.12164C31.2044 7.86017 31.0083 7.66407 30.7469 7.66407ZM28.263 9.69043C28.1322 9.82116 28.0669 10.0173 28.0669 10.2787L28.263 11.5861L27.0864 10.9324C27.021 10.867 26.8903 10.867 26.7595 10.867C26.6288 10.867 26.5634 10.867 26.4327 10.9324L25.2561 11.5861L25.4522 10.2787C25.5176 10.0826 25.3868 9.82116 25.2561 9.69043L24.2756 8.7753L25.5829 8.5792C25.779 8.5792 25.9751 8.3831 26.1059 8.25237L26.6942 7.07578L27.2825 8.25237C27.3478 8.44847 27.5439 8.5792 27.8054 8.5792L29.1127 8.7753L28.263 9.69043Z" fill="#2EA146"/>
</svg>
