<svg width="26" height="33" viewBox="0 0 26 33" fill="none" xmlns="http://www.w3.org/2000/svg">
<path d="M6.2705 19.5024C6.05794 20.0338 6.21736 20.5652 6.58934 20.9903C7.81156 22.2126 8.60866 23.0628 9.88403 24.285C10.0434 24.4444 10.256 24.5507 10.4154 24.6039C11 24.7633 11.4782 24.657 11.9033 24.2319C12.913 23.2222 14.0821 22.1063 15.4637 20.7246C16.5797 19.6087 17.9082 18.3865 18.971 17.3237C19.0241 17.2705 19.0241 17.2705 19.0773 17.2174C19.5024 16.7923 19.5555 16.0483 19.2367 15.5701C18.971 15.1449 18.5459 14.9324 18.0676 14.9324C17.6956 14.9324 17.3236 15.0918 17.0579 15.3575C16.1546 16.2609 14.9855 17.3768 14.1352 18.2271L13.9758 18.3865C13.0724 19.2899 12.0096 20.2995 11.1062 21.2029L10.8405 21.3092L8.55552 18.971C8.28982 18.7053 7.91784 18.5459 7.54586 18.5459C7.49272 18.5459 7.49272 18.5459 7.43958 18.5459C6.85504 18.599 6.42992 18.971 6.2705 19.5024Z" fill="#2EA146"/>
<path d="M19.0245 4.88889C18.9713 4.72947 18.865 4.57005 18.8119 4.41063C18.5993 4.09179 18.2274 3.82609 17.8554 3.71981C17.696 3.66667 17.5365 3.66667 17.4303 3.66667H16.4206V3.50725C16.4206 1.5942 14.8264 0 12.8602 0H12.7539C11.7443 0 10.894 0.371981 10.2032 1.00966C9.56552 1.64734 9.1404 2.55072 9.1404 3.50725V3.66667H8.13074C7.97132 3.66667 7.8119 3.66667 7.70562 3.71981C7.33364 3.82609 6.96166 4.03865 6.7491 4.41063C6.64282 4.57005 6.58968 4.72947 6.53654 4.88889C6.4834 4.99517 6.4834 5.10145 6.4834 5.20773V7.17391C6.4834 7.28019 6.53654 7.38647 6.53654 7.49275C6.7491 8.18358 7.38678 8.71498 8.13074 8.71498H17.4303C18.1742 8.66184 18.8119 8.18358 19.0245 7.49275C19.0776 7.38647 19.0776 7.28019 19.0776 7.17391V5.15459C19.0776 5.10145 19.0245 4.99517 19.0245 4.88889ZM14.667 3.66667H10.8409V3.50725C10.894 2.49758 11.6911 1.70048 12.7008 1.70048H12.8071C13.8167 1.70048 14.667 2.49758 14.667 3.50725V3.66667Z" fill="#2EA146"/>
<path d="M25.5072 24.5507V24.2318C25.5072 23.4347 25.5072 22.6376 25.5072 21.8937C25.5072 20.0338 25.5072 21.5748 25.5072 19.7149V18.7584C25.5072 15.8888 25.5072 12.9661 25.5072 10.0434C25.5072 7.86468 24.6039 6.27048 22.7971 5.31395C22.1594 4.99511 21.4686 4.83569 20.5652 4.83569H20.087V7.12072H20.1932C20.5121 7.12072 20.7778 7.12072 20.9903 7.17386C22.2126 7.227 23.2222 8.2898 23.2754 9.45888C23.3285 10.628 23.3285 11.797 23.3285 12.8598V22.1062C23.3285 24.8695 23.3285 24.7101 23.3285 27.4734C23.3285 28.1111 23.3285 28.7487 23.0097 29.3333C22.4783 30.2898 21.7343 30.7681 20.7246 30.7681H12.7536H4.72947C3.71981 30.7681 2.97585 30.2898 2.44444 29.3333C2.1256 28.7487 2.1256 28.1111 2.1256 27.4734C2.1256 24.7101 2.1256 24.8695 2.1256 22.1062V12.8598C2.1256 11.797 2.1256 10.5748 2.17874 9.45888C2.23188 8.2898 3.24155 7.28014 4.46377 7.17386C4.67633 7.17386 4.94203 7.17386 5.26087 7.12072H5.36715V4.83569H4.88889C3.93237 4.83569 3.24155 4.99511 2.657 5.31395C0.903382 6.32362 0 7.91782 0 10.0434C0 12.9661 0 15.8888 0 18.7584V19.7149C0 21.5748 0 20.0338 0 21.8937C0 22.6908 0 23.4879 0 24.2318V24.5507C0 26.7826 2.01922e-07 26.1449 0.0531403 28.3768C0.10628 29.599 0.584541 30.7681 1.48792 31.6183C2.3913 32.5217 3.56039 32.9999 4.78261 32.9999C7.38647 32.9999 9.9372 32.9999 12.5411 32.9999H12.7536H13.0193C15.6232 32.9999 18.1739 32.9999 20.7778 32.9999C22 32.9999 23.1691 32.5217 24.0725 31.6183C24.9758 30.7681 25.4541 29.599 25.5072 28.3768C25.5604 26.1449 25.5604 26.7826 25.5072 24.5507Z" fill="#2EA146"/>
</svg>
