<svg width="44" height="30" viewBox="0 0 44 30" fill="none" xmlns="http://www.w3.org/2000/svg">
<path d="M11.2633 23.0826C11.4859 23.1993 11.7064 23.2585 11.9187 23.2583C12.2268 23.2583 12.5014 23.1339 12.692 22.9079C12.845 22.7261 13.0093 22.3998 12.9194 21.8796L12.6683 20.419L13.7332 19.3844C14.1035 19.0253 14.2407 18.5888 14.1107 18.187C13.9804 17.7851 13.6127 17.5122 13.1014 17.4383L11.6274 17.2248L10.9684 15.8946C10.7399 15.4331 10.367 15.1685 9.94465 15.1685C9.52198 15.1685 9.1487 15.4333 8.9209 15.8946L8.26221 17.225L6.78847 17.4383C6.27692 17.5122 5.9089 17.7853 5.77855 18.1874C5.6482 18.5893 5.7858 19.0256 6.15581 19.3842L7.22101 20.4192L6.97019 21.8786C6.87999 22.3992 7.04361 22.7256 7.19698 22.9078C7.51828 23.29 8.07985 23.3686 8.62528 23.0826L9.94465 22.3916L11.2633 23.0826ZM8.36984 21.6944L8.67008 19.9472L7.39909 18.7122L9.15625 18.4578L9.94465 16.8654L10.7333 18.4579L12.4902 18.7122L11.2192 19.9473L11.5198 21.6947L9.94465 20.8695L8.36984 21.6944Z" fill="#2EA146"/>
<path d="M6.35445 13.8537L6.14246 12.5613L7.03552 11.6508C7.37425 11.305 7.49505 10.8871 7.36734 10.5043C7.24059 10.1256 6.89991 9.86765 6.43279 9.79703L5.22439 9.61302L4.6783 8.45516C4.37907 7.82115 3.90075 7.75269 3.70886 7.75269C3.51662 7.75269 3.03797 7.82115 2.73976 8.45516L2.19331 9.61302L0.984886 9.7969C0.517122 9.86782 0.1761 10.1259 0.0496952 10.5049C-0.0780239 10.888 0.0431273 11.3057 0.382156 11.651L1.27491 12.5613L1.06292 13.853C0.980605 14.3517 1.13897 14.6633 1.28644 14.8368C1.59486 15.2007 2.12913 15.2739 2.63505 14.9961L3.70852 14.4055L4.78228 14.9961C4.99032 15.1105 5.19837 15.1684 5.40082 15.1684C5.68953 15.1684 5.94857 15.0509 6.12995 14.8374C6.27709 14.6643 6.43575 14.3531 6.35445 13.8537ZM4.70131 12.1051L4.937 13.5424L3.70852 12.8666L2.48067 13.5411L2.71605 12.1051L1.68537 11.0542L3.10646 10.8379L3.70886 9.56071L4.31125 10.8379L5.73133 11.055L4.70131 12.1051Z" fill="#2EA146"/>
<path d="M36.3598 17.4383L34.8857 17.225L34.2274 15.895C33.9992 15.4333 33.626 15.1685 33.2033 15.1685C32.781 15.1685 32.408 15.4331 32.1795 15.8945L31.5205 17.2248L30.0465 17.4383C29.5353 17.5122 29.1675 17.7851 29.0372 18.187C28.9072 18.5888 29.0444 19.0253 29.4145 19.3842L30.4797 20.419L30.2285 21.8794C30.1386 22.3998 30.3029 22.7261 30.456 22.9081C30.7779 23.2893 31.3388 23.3686 31.8849 23.0826L33.2033 22.3916L34.5226 23.0826C34.7452 23.1993 34.9657 23.2583 35.178 23.2583C35.4862 23.2583 35.7607 23.1339 35.951 22.9078C36.1043 22.7257 36.2679 22.3994 36.1777 21.8796L35.9269 20.4192L36.9918 19.3846C37.3621 19.0256 37.4997 18.5893 37.3694 18.1874C37.239 17.7853 36.871 17.5122 36.3598 17.4383ZM34.4779 19.9472L34.7781 21.6944L33.2033 20.8695L31.6282 21.6947L31.9287 19.9473L30.6577 18.7122L32.4146 18.4579L33.2033 16.8654L33.9917 18.4578L35.7488 18.7122L34.4779 19.9472Z" fill="#2EA146"/>
<path d="M43.0979 10.5049C42.9715 10.1259 42.6304 9.86782 42.163 9.79703L40.9542 9.61302L40.4081 8.45597C40.1096 7.82115 39.6309 7.75269 39.4387 7.75269C39.2468 7.75269 38.7685 7.82115 38.4693 8.45533L37.9232 9.61302L36.7151 9.7969C36.2476 9.86765 35.907 10.1256 35.7802 10.5043C35.6525 10.8871 35.7733 11.305 36.1124 11.651L37.0051 12.5613L36.7931 13.8545C36.7118 14.3531 36.8705 14.6643 37.0176 14.8376C37.3267 15.2003 37.8603 15.2732 38.3653 14.9961L39.439 14.4055L40.5128 14.9963C40.7208 15.1105 40.9289 15.1684 41.1313 15.1684C41.4207 15.1684 41.6798 15.0507 41.8611 14.8368C42.0086 14.6633 42.167 14.3517 42.0846 13.8537L41.8726 12.5613L42.7651 11.6513C43.1044 11.3057 43.2256 10.888 43.0979 10.5049ZM40.4315 12.1051L40.6672 13.5423L39.439 12.8666L38.2106 13.5411L38.4462 12.1051L37.4156 11.0542L38.8363 10.8379L39.4387 9.56071L40.0411 10.8379L41.4615 11.055L40.4315 12.1051Z" fill="#2EA146"/>
<path d="M21.5736 11.4607C24.739 11.4607 27.3039 8.89507 27.3039 5.72966C27.3039 2.5648 24.739 0 21.5736 0C18.4095 0 15.8433 2.5648 15.8433 5.72966C15.8433 8.89507 18.4095 11.4607 21.5736 11.4607ZM21.5736 1.34831C23.9898 1.34831 25.9556 3.31385 25.9556 5.72966C25.9556 8.14635 23.9898 10.1124 21.5736 10.1124C19.1574 10.1124 17.1916 8.14635 17.1916 5.72966C17.1916 3.31385 19.1574 1.34831 21.5736 1.34831Z" fill="#2EA146"/>
<path d="M25.3402 25.7124L27.1119 23.9047C27.5724 23.4356 27.7432 22.887 27.581 22.3995C27.4207 21.9192 26.9674 21.5889 26.3377 21.4931L23.9126 21.1248L22.823 18.8133C22.4191 17.9577 21.8147 17.8652 21.5738 17.8652C21.3322 17.8652 20.7275 17.9577 20.3252 18.8136L19.235 21.1246L16.8096 21.4931C16.1795 21.5889 15.7259 21.9195 15.5659 22.4002C15.4033 22.8878 15.5745 23.4362 16.0344 23.9042L17.807 25.7125L17.388 28.2716C17.2744 28.96 17.4772 29.3716 17.6671 29.5957C18.0555 30.0536 18.7346 30.1309 19.4114 29.7588L21.5738 28.5698L23.7355 29.7588C24.0265 29.9189 24.3116 30.0002 24.5822 30.0001C24.9396 30.0001 25.2583 29.8565 25.4795 29.5957C25.6697 29.3716 25.8729 28.9602 25.7596 28.2725L25.3402 25.7124ZM24.4291 28.4909C24.4363 28.5351 24.4403 28.5736 24.4422 28.6065C24.4248 28.5984 24.406 28.5887 24.3853 28.5774L21.5738 27.0312L18.762 28.5772C18.7412 28.5885 18.7225 28.5981 18.7053 28.6063C18.707 28.5732 18.7113 28.5347 18.7185 28.4905L19.2482 25.2563L16.9966 22.9598C16.9554 22.9175 16.9248 22.8803 16.9031 22.8495C16.9324 22.8411 16.9686 22.8329 17.0124 22.8263L20.1481 22.3498L21.5448 19.388C21.555 19.3666 21.5646 19.3474 21.5741 19.3301C21.5837 19.3475 21.5935 19.367 21.6037 19.3887L22.9995 22.3496L26.1349 22.8263C26.1787 22.8329 26.2149 22.8411 26.2439 22.8495C26.2218 22.8804 26.1912 22.9178 26.1494 22.9604L23.8991 25.2564L24.4291 28.4909Z" fill="#2EA146"/>
<path d="M12.393 15.7332C12.7551 15.0811 13.1771 14.5036 13.664 14.0035C14.7308 12.9077 16.142 12.1573 17.8768 11.7552C17.3988 11.4608 16.9541 11.1174 16.5601 10.7214C14.2433 11.4746 12.6564 12.8234 11.5776 14.4843C11.814 14.707 12.0191 14.9777 12.1768 15.2965L12.393 15.7332Z" fill="#2EA146"/>
<path d="M11.1997 24.8894C10.9794 24.8894 10.804 24.7152 10.8004 24.5648C10.7984 24.4917 10.7991 24.4222 10.7974 24.3498C10.7441 24.3256 10.6908 24.3047 10.6378 24.2771L9.94452 23.9138L9.44385 24.1762C9.44614 24.3184 9.44877 24.4603 9.45241 24.6007C9.47611 25.5057 10.2747 26.2377 11.1997 26.2377H16.3556L16.3668 26.1685L15.1126 24.8894H11.1997Z" fill="#2EA146"/>
<path d="M25.1953 11.8013C26.8869 12.2228 28.2764 12.9799 29.3446 14.0693C29.8548 14.5899 30.2999 15.1951 30.6814 15.8808L30.9711 15.2961C31.1057 15.0241 31.2765 14.7887 31.4698 14.5858C30.3802 12.9259 28.7975 11.567 26.5189 10.7859C26.121 11.1753 25.6756 11.5137 25.1953 11.8013Z" fill="#2EA146"/>
<path d="M32.5103 24.2769C32.4596 24.3036 32.4066 24.3199 32.3553 24.3431C32.3542 24.4208 32.3556 24.4958 32.3539 24.5742C32.351 24.7169 32.1752 24.8894 31.9612 24.8894H28.0348L26.7812 26.1684L26.7924 26.2377H31.9612C32.8849 26.2377 33.6841 25.5057 33.7019 24.6007C33.7045 24.4608 33.7062 24.3195 33.7072 24.178L33.2032 23.9138L32.5103 24.2769Z" fill="#2EA146"/>
</svg>
