<svg width="38" height="24" viewBox="0 0 38 24" fill="none" xmlns="http://www.w3.org/2000/svg">
<g clip-path="url(#clip0_50_710)">
<path opacity="0.07" d="M35 0H3C1.3 0 0 1.3 0 3V21C0 22.7 1.4 24 3 24H35C36.7 24 38 22.7 38 21V3C38 1.3 36.6 0 35 0Z" fill="black"/>
<path d="M35 1C36.1 1 37 1.9 37 3V21C37 22.1 36.1 23 35 23H3C1.9 23 1 22.1 1 21V3C1 1.9 1.9 1 3 1H35Z" fill="#5A31F4"/>
<path d="M21.3821 9.71354C21.3821 11.3815 20.2051 12.5715 18.5611 12.5715H17.0121C16.9865 12.5719 16.9616 12.5797 16.9403 12.5939C16.919 12.6081 16.9023 12.6281 16.8921 12.6515C16.8856 12.667 16.8822 12.6837 16.8821 12.7005V14.8925C16.8821 14.9096 16.8787 14.9264 16.8722 14.9421C16.8656 14.9579 16.8561 14.9721 16.844 14.9841C16.8319 14.9961 16.8175 15.0056 16.8018 15.012C16.786 15.0184 16.7691 15.0217 16.7521 15.0215H15.6681C15.6336 15.0215 15.6006 15.0078 15.5762 14.9835C15.5518 14.9591 15.5381 14.926 15.5381 14.8915V6.98654C15.5377 6.96079 15.5451 6.93551 15.5594 6.91408C15.5737 6.89265 15.5942 6.87607 15.6181 6.86654C15.6339 6.85991 15.6509 6.85651 15.6681 6.85654H18.5681C20.2051 6.85654 21.3821 8.04654 21.3821 9.71454V9.71354V9.71354ZM20.0301 9.71354C20.0301 8.75554 19.3721 8.05554 18.4801 8.05554H17.0121C16.995 8.05554 16.9781 8.0589 16.9624 8.06544C16.9466 8.07197 16.9323 8.08154 16.9202 8.09362C16.9081 8.10569 16.8985 8.12002 16.892 8.13579C16.8855 8.15156 16.8821 8.16847 16.8821 8.18554V11.2355C16.8819 11.2526 16.8852 11.2696 16.8917 11.2854C16.8982 11.3012 16.9079 11.3156 16.9201 11.3275C16.9322 11.3397 16.9465 11.3492 16.9623 11.3558C16.9781 11.3623 16.995 11.3656 17.0121 11.3655H18.4801C19.3721 11.3705 20.0301 10.6705 20.0301 9.71354V9.71354ZM21.7041 13.5045C21.6927 13.2483 21.746 12.9934 21.859 12.7632C21.9721 12.5331 22.1413 12.3351 22.3511 12.1875C22.7741 11.8715 23.4351 11.7075 24.4061 11.6735L25.4391 11.6375V11.3345C25.4391 10.7275 25.0291 10.4715 24.3711 10.4715C23.7131 10.4715 23.2961 10.7025 23.2011 11.0815C23.193 11.1082 23.1764 11.1314 23.1538 11.1477C23.1312 11.1639 23.1039 11.1723 23.0761 11.1715H22.0541C22.026 11.1719 21.9985 11.1631 21.9758 11.1465C21.953 11.13 21.9363 11.1064 21.9281 11.0795C21.9227 11.0617 21.9213 11.0429 21.9241 11.0245C22.0761 10.1265 22.8281 9.44454 24.4181 9.44454C26.1101 9.44454 26.7211 10.2275 26.7211 11.7205V14.8925C26.721 14.9097 26.7174 14.9267 26.7107 14.9424C26.704 14.9582 26.6942 14.9725 26.682 14.9845C26.6697 14.9965 26.6552 15.006 26.6392 15.0123C26.6233 15.0187 26.6063 15.0218 26.5891 15.0215H25.5591C25.5246 15.0215 25.4916 15.0078 25.4672 14.9835C25.4428 14.9591 25.4291 14.926 25.4291 14.8915V14.6555C25.4294 14.636 25.4238 14.6168 25.4129 14.6005C25.402 14.5842 25.3863 14.5717 25.3681 14.5645C25.3501 14.5574 25.3303 14.5557 25.3113 14.5596C25.2923 14.5635 25.2749 14.5729 25.2611 14.5865C24.9511 14.9205 24.4531 15.1615 23.6541 15.1615C22.4791 15.1615 21.7041 14.5545 21.7041 13.5045V13.5045ZM25.4391 12.8175V12.5715L24.1001 12.6415C23.3951 12.6775 22.9851 12.9675 22.9851 13.4575C22.9851 13.9015 23.3611 14.1475 24.0191 14.1475C24.9121 14.1475 25.4391 13.6675 25.4391 12.8175ZM27.7551 17.4175V16.4985C27.7554 16.4793 27.7599 16.4603 27.7684 16.443C27.7768 16.4257 27.789 16.4105 27.8041 16.3985C27.8191 16.3864 27.8365 16.3778 27.8551 16.3731C27.8738 16.3684 27.8932 16.3679 27.9121 16.3715C28.0701 16.4005 28.2301 16.4155 28.3911 16.4155C28.6669 16.4307 28.9397 16.3524 29.1656 16.1935C29.3914 16.0346 29.5572 15.8042 29.6361 15.5395L29.7031 15.3285C29.7131 15.3001 29.7131 15.269 29.7031 15.2405L27.5581 9.76954C27.5457 9.73952 27.5449 9.70592 27.556 9.67538C27.5671 9.64484 27.5893 9.61957 27.6181 9.60454C27.6372 9.59447 27.6585 9.58931 27.6801 9.58954H28.7201C28.7468 9.58961 28.7728 9.59777 28.7948 9.61295C28.8168 9.62812 28.8336 9.6496 28.8431 9.67454L30.2991 13.5335C30.3081 13.5594 30.325 13.5819 30.3474 13.5977C30.3699 13.6135 30.3967 13.6218 30.4241 13.6215C30.4515 13.6215 30.4781 13.613 30.5005 13.5973C30.5229 13.5815 30.5398 13.5593 30.5491 13.5335L31.8141 9.68554C31.8227 9.65901 31.8396 9.63594 31.8622 9.61973C31.8849 9.60353 31.9122 9.59505 31.9401 9.59554H33.0161C33.0484 9.59573 33.0795 9.60757 33.1038 9.62888C33.128 9.65019 33.1438 9.67955 33.1481 9.71154C33.1505 9.73288 33.1478 9.75449 33.1401 9.77454L30.8451 15.8505C30.3171 17.2635 29.4121 17.6235 28.4151 17.6235C28.2259 17.6288 28.0369 17.6065 27.8541 17.5575C27.8234 17.55 27.7965 17.5318 27.7782 17.5061C27.7598 17.4804 27.7513 17.449 27.7541 17.4175H27.7551V17.4175ZM8.5701 6.40054C7.2056 6.39034 5.88852 6.90065 4.8871 7.82754C4.84449 7.86629 4.81789 7.91957 4.81253 7.97692C4.80716 8.03427 4.82342 8.09156 4.8581 8.13754L5.4761 8.97654C5.49613 9.00483 5.52214 9.02836 5.55228 9.04547C5.58243 9.06257 5.61598 9.07282 5.65053 9.07549C5.68509 9.07817 5.71981 9.07319 5.75223 9.06093C5.78465 9.04867 5.81397 9.02941 5.8381 9.00454C6.19803 8.64714 6.62547 8.36493 7.09554 8.17436C7.56561 7.98379 8.06891 7.88867 8.5761 7.89454C10.6961 7.89454 11.8031 9.47854 11.8031 11.0445C11.8031 12.7445 10.6401 13.9425 8.9681 13.9655C7.6761 13.9655 6.7021 13.1155 6.7021 11.9915C6.70321 11.7073 6.7678 11.4269 6.89116 11.1709C7.01452 10.9148 7.19353 10.6896 7.4151 10.5115C7.46228 10.4728 7.49223 10.417 7.49841 10.3563C7.5046 10.2956 7.48651 10.235 7.4481 10.1875L6.7981 9.37254C6.77848 9.34748 6.75399 9.32665 6.72611 9.31131C6.69822 9.29596 6.66752 9.28641 6.63586 9.28323C6.60419 9.28006 6.5722 9.28332 6.54183 9.29282C6.51145 9.30233 6.48331 9.31788 6.4591 9.33854C6.061 9.65788 5.73918 10.062 5.5171 10.5215C5.29582 10.98 5.18063 11.4825 5.1801 11.9915C5.1801 13.9265 6.8351 15.4435 8.9551 15.4555H8.9851C11.5021 15.4235 13.3221 13.5715 13.3221 11.0405C13.3221 8.79354 11.6551 6.40054 8.5701 6.40054V6.40054Z" fill="white"/>
</g>
<defs>
<clipPath id="clip0_50_710">
<rect width="38" height="24" fill="white"/>
</clipPath>
</defs>
</svg>
