<svg width="105" height="105" viewBox="0 0 105 105" fill="none" xmlns="http://www.w3.org/2000/svg">
<path d="M41.5625 68.1798V36.8198C41.5632 36.4275 41.6693 36.0425 41.8699 35.7053C42.0705 35.3681 42.3581 35.091 42.7025 34.9031C43.047 34.7152 43.4356 34.6234 43.8277 34.6374C44.2199 34.6513 44.601 34.7705 44.9313 34.9823L69.3262 50.658C69.6351 50.8559 69.8893 51.1283 70.0653 51.4502C70.2414 51.772 70.3336 52.133 70.3336 52.4998C70.3336 52.8667 70.2414 53.2277 70.0653 53.5495C69.8893 53.8714 69.6351 54.1438 69.3262 54.3417L44.9313 70.0217C44.601 70.2336 44.2199 70.3528 43.8277 70.3667C43.4356 70.3806 43.047 70.2889 42.7025 70.101C42.3581 69.9131 42.0705 69.636 41.8699 69.2988C41.6693 68.9616 41.5632 68.5766 41.5625 68.1842V68.1798Z" fill="white"/>
<path d="M4.375 52.5C4.375 25.9219 25.9219 4.375 52.5 4.375C79.0781 4.375 100.625 25.9219 100.625 52.5C100.625 79.0781 79.0781 100.625 52.5 100.625C25.9219 100.625 4.375 79.0781 4.375 52.5ZM52.5 10.9375C41.4769 10.9375 30.9054 15.3164 23.1109 23.1109C15.3164 30.9054 10.9375 41.4769 10.9375 52.5C10.9375 63.5231 15.3164 74.0946 23.1109 81.8891C30.9054 89.6836 41.4769 94.0625 52.5 94.0625C63.5231 94.0625 74.0946 89.6836 81.8891 81.8891C89.6836 74.0946 94.0625 63.5231 94.0625 52.5C94.0625 41.4769 89.6836 30.9054 81.8891 23.1109C74.0946 15.3164 63.5231 10.9375 52.5 10.9375Z" fill="white"/>
</svg>
