<svg width="41" height="41" viewBox="0 0 41 41" fill="none" xmlns="http://www.w3.org/2000/svg">
<path d="M11.614 17.1417C11.2445 17.1417 10.89 17.198 10.5371 17.2493C10.6514 16.865 10.769 16.474 10.9579 16.1228C11.1468 15.6125 11.4417 15.1702 11.7349 14.7245C11.9801 14.2424 12.4125 13.916 12.7306 13.5035C13.0636 13.1025 13.5175 12.8358 13.8771 12.5028C14.2299 12.1549 14.6922 11.9809 15.06 11.7357C15.4443 11.5154 15.779 11.2719 16.1368 11.1559L17.0298 10.7881L17.8151 10.4617L17.0116 7.25098L16.0225 7.48955C15.7061 7.56907 15.3201 7.66185 14.881 7.77285C14.4321 7.85568 13.9533 8.08266 13.4198 8.28975C12.893 8.525 12.2833 8.68405 11.7167 9.06178C11.1468 9.42295 10.489 9.72448 9.90918 10.2082C9.34755 10.7069 8.66995 11.1393 8.16962 11.7739C7.62289 12.367 7.0828 12.9899 6.66365 13.699C6.17823 14.3749 5.84854 15.1171 5.50062 15.8511C5.18584 16.585 4.93236 17.3355 4.72527 18.0645C4.33263 19.5257 4.15701 20.914 4.08909 22.1019C4.03276 23.2914 4.06589 24.2805 4.13548 24.9962C4.16033 25.3342 4.20672 25.6622 4.23985 25.8892L4.28127 26.1675L4.32434 26.1576C4.61901 27.5341 5.29735 28.799 6.28088 29.806C7.26442 30.8131 8.51296 31.5211 9.88208 31.8482C11.2512 32.1753 12.6849 32.1081 14.0175 31.6543C15.35 31.2006 16.5268 30.3789 17.4119 29.2843C18.2969 28.1897 18.8539 26.8669 19.0186 25.4689C19.1832 24.0709 18.9487 22.6549 18.3422 21.3846C17.7356 20.1143 16.7819 19.0417 15.5912 18.2908C14.4005 17.54 13.0216 17.1416 11.614 17.1417ZM29.838 17.1417C29.4685 17.1417 29.114 17.198 28.7611 17.2493C28.8754 16.865 28.9931 16.474 29.1819 16.1228C29.3708 15.6125 29.6657 15.1702 29.9589 14.7245C30.2041 14.2424 30.6365 13.916 30.9546 13.5035C31.2876 13.1025 31.7416 12.8358 32.1011 12.5028C32.454 12.1549 32.9162 11.9809 33.284 11.7357C33.6684 11.5154 34.003 11.2719 34.3609 11.1559L35.2538 10.7881L36.0391 10.4617L35.2356 7.25098L34.2466 7.48955C33.9301 7.56907 33.5441 7.66185 33.1051 7.77285C32.6561 7.85568 32.1773 8.08266 31.6438 8.28975C31.1187 8.52666 30.5073 8.68405 29.9407 9.06344C29.3708 9.42461 28.7131 9.72613 28.1332 10.2099C27.5716 10.7086 26.894 11.141 26.3937 11.7739C25.8469 12.367 25.3068 12.9899 24.8877 13.699C24.4023 14.3749 24.0726 15.1171 23.7247 15.8511C23.4099 16.585 23.1564 17.3355 22.9493 18.0645C22.5567 19.5257 22.3811 20.914 22.3131 22.1019C22.2568 23.2914 22.2899 24.2805 22.3595 24.9962C22.3844 25.3342 22.4308 25.6622 22.4639 25.8892L22.5053 26.1675L22.5484 26.1576C22.8431 27.5341 23.5214 28.799 24.5049 29.806C25.4885 30.8131 26.737 31.5211 28.1061 31.8482C29.4752 32.1753 30.909 32.1081 32.2415 31.6543C33.574 31.2006 34.7509 30.3789 35.6359 29.2843C36.5209 28.1897 37.078 26.8669 37.2426 25.4689C37.4072 24.0709 37.1727 22.6549 36.5662 21.3846C35.9597 20.1143 35.0059 19.0417 33.8152 18.2908C32.6246 17.54 31.2456 17.1416 29.838 17.1417Z" fill="#2EA146"/>
</svg>
