<svg width="187" height="11" viewBox="0 0 187 11" fill="none" xmlns="http://www.w3.org/2000/svg">
<path fill-rule="evenodd" clip-rule="evenodd" d="M33.5603 3.8593C31.5277 4.28234 29.62 4.89481 27.8996 5.75353C27.7122 5.84824 27.6554 5.9808 27.6384 6.03763C27.61 6.13866 27.6214 6.23341 27.6668 6.32181C27.6952 6.37864 27.7406 6.44811 27.8371 6.4923C27.9053 6.52388 28.0813 6.5491 28.3141 6.54279C28.7115 6.53648 29.3247 6.48598 29.62 6.48598C30.6306 6.49861 31.6413 6.49225 32.6519 6.51119C35.8712 6.57433 36.4333 6.62484 40.5724 6.58695C45.4042 6.54276 50.2474 6.46699 55.0848 6.35334C39.7094 7.30045 24.3566 8.40542 9.08339 9.43462C8.91306 9.44725 8.78247 9.61146 8.79382 9.80089C8.7995 9.99662 8.95278 10.1419 9.12311 10.1292C44.7626 7.72987 80.7939 4.90111 116.706 4.71801C118.477 4.7622 120.243 4.80638 122.003 4.85058C132.638 5.1284 143.278 5.46307 153.901 5.98083C157.359 6.15131 160.817 6.34071 164.28 6.51751C165.302 6.56802 166.33 6.61853 167.357 6.66904C168.186 6.70693 170.321 6.84586 170.622 6.85217C170.895 6.85849 170.963 6.58702 170.968 6.57439C170.986 6.48599 170.974 6.38492 170.906 6.29021C170.889 6.26495 170.844 6.19553 170.741 6.16396C170.724 6.16396 170.645 6.1513 170.48 6.13236C161.941 5.35572 153.379 4.81903 144.8 4.47807C145.952 4.49069 147.105 4.49704 148.257 4.50967C157.143 4.58544 166.051 4.85694 174.932 4.50967C176.953 4.4339 178.98 4.34547 180.995 4.23813C182.352 4.16867 185.844 4.25708 186.338 4.09292C186.565 4.02346 186.616 3.84665 186.622 3.75825C186.628 3.65722 186.611 3.54357 186.509 3.44254C186.463 3.39203 186.321 3.30999 186.054 3.24685C177.339 1.14425 167.142 1.73773 158.267 1.15052C134.165 -0.459573 110.148 0.61387 86.0514 1.59256C65.2537 2.43865 44.456 2.48283 23.6696 3.632C16.0614 4.04873 8.2147 3.56889 0.714341 5.16004C0.544008 5.19792 0.436094 5.37465 0.464483 5.56407C0.498549 5.7535 0.663219 5.87982 0.833553 5.84193C8.29984 4.25709 16.1182 4.74326 23.698 4.32653C26.9855 4.14343 30.2729 3.99189 33.5603 3.8593ZM97.8613 4.32653C85.126 4.10554 72.3908 3.99186 59.6441 4.06131C50.9003 4.10551 38.1594 2.25555 29.4724 5.79145C29.5348 5.79145 29.5859 5.79145 29.6313 5.79145C30.6419 5.80408 31.6526 5.7914 32.6633 5.81665C35.8769 5.87979 36.4389 5.9303 40.5667 5.89242C51.1217 5.79139 61.7051 5.53887 72.2545 5.1474C80.7995 4.83169 89.3332 4.54753 97.8613 4.32653ZM184.01 3.51199C175.772 1.90821 166.432 2.38815 158.227 1.84514C134.148 0.23504 110.148 1.30841 86.0742 2.28709C75.3148 2.72908 64.5611 2.95006 53.813 3.22157C55.8741 3.30996 57.8443 3.37309 59.6441 3.36678C77.8641 3.26575 96.0784 3.53731 114.298 3.96666C125.614 3.77724 136.93 3.70779 148.263 3.80881C157.143 3.89089 166.034 4.15609 174.915 3.81513C176.93 3.73936 178.951 3.65093 180.967 3.54359C181.654 3.51202 182.897 3.5183 184.01 3.51199Z" fill="#EBB000"/>
</svg>
