<svg width="28" height="27" viewBox="0 0 28 27" fill="none" xmlns="http://www.w3.org/2000/svg">
<path d="M15.2046 14.5166C14.7253 14.5166 14.2461 14.3249 13.8627 13.9415C13.0959 13.1747 13.0959 12.0245 13.8627 11.2577L24.4061 0.714257C25.1729 -0.0525386 26.3231 -0.0525386 27.0899 0.714257C27.8567 1.48105 27.8567 2.63124 27.0899 3.39804L16.5465 13.9415C16.1631 14.3249 15.6838 14.5166 15.2046 14.5166ZM24.7895 9.81995V22.1845C24.7895 23.2389 23.9269 24.1015 22.8725 24.1015H5.61962C4.56528 24.1015 3.70263 23.2389 3.70263 22.1845V4.93163C3.70263 3.87729 4.56528 3.01464 5.61962 3.01464H17.9842L20.8597 0.13916H5.61962C3.03168 0.13916 0.827148 2.3437 0.827148 4.93163V22.1845C0.827148 24.8683 3.03168 26.977 5.61962 26.977H22.8725C25.5563 26.977 27.665 24.7725 27.665 22.1845V6.94447L24.7895 9.81995ZM11.3706 13.5581L10.4121 16.4336C10.4121 17.0087 10.7955 17.3921 11.3706 17.3921L14.2461 16.4336L11.3706 13.5581Z" fill="#2EA146"/>
</svg>
