<svg width="28" height="28" viewBox="0 0 28 28" fill="none" xmlns="http://www.w3.org/2000/svg">
<path d="M5.09655 17.3324H0.999071C0.771009 17.3324 0.552287 17.423 0.391023 17.5842C0.229758 17.7455 0.13916 17.9642 0.13916 18.1923V26.7914C0.13916 27.0195 0.229758 27.2382 0.391023 27.3994C0.552287 27.5607 0.771009 27.6513 0.999071 27.6513H5.09655C5.32461 27.6513 5.54333 27.5607 5.7046 27.3994C5.86586 27.2382 5.95646 27.0195 5.95646 26.7914V18.1923C5.95646 17.9642 5.86586 17.7455 5.7046 17.5842C5.54333 17.423 5.32461 17.3324 5.09655 17.3324ZM4.23664 25.9315H1.85898V19.0522H4.23664V25.9315ZM12.3284 14.6279H8.23092C8.00286 14.6279 7.78414 14.7185 7.62288 14.8798C7.46161 15.0411 7.37101 15.2598 7.37101 15.4879V26.7742C7.37101 27.0023 7.46161 27.221 7.62288 27.3822C7.78414 27.5435 8.00286 27.6341 8.23092 27.6341H12.3284C12.5565 27.6341 12.7752 27.5435 12.9365 27.3822C13.0977 27.221 13.1883 27.0023 13.1883 26.7742V15.4879C13.1883 15.2598 13.0977 15.0411 12.9365 14.8798C12.7752 14.7185 12.5565 14.6279 12.3284 14.6279ZM11.4685 25.9143H9.09084V16.3478H11.4685V25.9143ZM19.5646 12.375H15.4671C15.239 12.375 15.0203 12.4656 14.859 12.6268C14.6978 12.7881 14.6072 13.0068 14.6072 13.2349V26.7742C14.6072 27.0023 14.6978 27.221 14.859 27.3822C15.0203 27.5435 15.239 27.6341 15.4671 27.6341H19.5646C19.6775 27.6341 19.7893 27.6119 19.8936 27.5687C19.998 27.5254 20.0928 27.4621 20.1726 27.3822C20.2525 27.3024 20.3158 27.2076 20.359 27.1033C20.4022 26.9989 20.4245 26.8871 20.4245 26.7742V13.2349C20.4245 13.122 20.4022 13.0102 20.359 12.9058C20.3158 12.8015 20.2525 12.7067 20.1726 12.6268C20.0928 12.547 19.998 12.4837 19.8936 12.4404C19.7893 12.3972 19.6775 12.375 19.5646 12.375ZM18.7046 25.9143H16.327V14.0948H18.7046V25.9143ZM26.7964 7.96364H22.6989C22.4709 7.96364 22.2521 8.05424 22.0909 8.2155C21.9296 8.37677 21.839 8.59549 21.839 8.82355V26.7742C21.839 27.0023 21.9296 27.221 22.0909 27.3822C22.2521 27.5435 22.4709 27.6341 22.6989 27.6341H26.7964C27.0245 27.6341 27.2432 27.5435 27.4045 27.3822C27.5657 27.221 27.6563 27.0023 27.6563 26.7742V8.82355C27.6563 8.59549 27.5657 8.37677 27.4045 8.2155C27.2432 8.05424 27.0245 7.96364 26.7964 7.96364ZM25.9365 25.9143H23.5588V9.68346H25.9365V25.9143ZM1.21835 13.3338C1.20517 13.2214 1.21431 13.1075 1.24524 12.9987C1.27616 12.8898 1.32827 12.7881 1.39857 12.6995C1.46887 12.6108 1.55598 12.5368 1.65491 12.4819C1.75384 12.427 1.86264 12.3921 1.97507 12.3793C2.10406 12.3793 14.5599 10.8056 23.0687 2.5333H21.1812C20.9531 2.5333 20.7344 2.4427 20.5731 2.28144C20.4119 2.12017 20.3213 1.90145 20.3213 1.67339C20.3213 1.44533 20.4119 1.2266 20.5731 1.06534C20.7344 0.904074 20.9531 0.813477 21.1812 0.813477H25.2787C25.5067 0.813477 25.7255 0.904074 25.8867 1.06534C26.048 1.2266 26.1386 1.44533 26.1386 1.67339V5.77517C26.1386 6.00323 26.048 6.22195 25.8867 6.38321C25.7255 6.54448 25.5067 6.63508 25.2787 6.63508C25.0506 6.63508 24.8319 6.54448 24.6706 6.38321C24.5094 6.22195 24.4188 6.00323 24.4188 5.77517V3.62539C15.5015 12.4395 2.71889 14.0217 2.17285 14.0905H2.07396C1.86344 14.091 1.66006 14.0142 1.50236 13.8747C1.34467 13.7353 1.24361 13.5428 1.21835 13.3338Z" fill="#2EA146"/>
</svg>
