<svg width="26" height="28" viewBox="0 0 26 28" fill="none" xmlns="http://www.w3.org/2000/svg">
<path d="M17.9152 11.1255C17.6675 10.889 17.3382 10.7571 16.9957 10.7571C16.6533 10.7571 16.324 10.889 16.0763 11.1255L12.225 14.9768L10.1086 12.8603C9.86087 12.6238 9.53158 12.4919 9.18912 12.4919C8.84666 12.4919 8.51737 12.6238 8.26967 12.8603C8.02602 13.1043 7.88916 13.435 7.88916 13.7798C7.88916 14.1246 8.02602 14.4553 8.26967 14.6992L10.5813 17.0108C11.018 17.447 11.61 17.692 12.2272 17.692C12.8444 17.692 13.4364 17.447 13.8731 17.0108L17.9195 12.9644C18.1626 12.7199 18.2987 12.3889 18.2979 12.0441C18.297 11.6993 18.1594 11.3689 17.9152 11.1255Z" fill="#2EA146"/>
<path d="M25.6698 16.4385V7.66475C25.6701 6.84559 25.4127 6.0471 24.934 5.38237C24.4553 4.71763 23.7796 4.22035 23.0026 3.96095L13.9599 0.955402C13.3882 0.766168 12.7708 0.766168 12.1991 0.955402L3.18245 3.96529C2.40615 4.22445 1.73095 4.72108 1.25231 5.38494C0.773673 6.04881 0.515815 6.84633 0.515194 7.66475V16.4385C0.509169 18.1317 0.977724 19.7926 1.86772 21.233C2.75771 22.6734 4.03352 23.8356 5.55046 24.5878L10.4903 27.0512C11.3009 27.4461 12.1908 27.6513 13.0925 27.6513C13.9942 27.6513 14.8841 27.4461 15.6947 27.0512L20.6259 24.5834C22.1438 23.8328 23.4209 22.6718 24.3125 21.2322C25.204 19.7925 25.6743 18.1319 25.6698 16.4385ZM14.5411 24.7222C14.0913 24.947 13.5954 25.0641 13.0925 25.0641C12.5897 25.0641 12.0937 24.947 11.644 24.7222L6.71278 22.2588C5.62953 21.7215 4.71851 20.8914 4.08303 19.8626C3.44755 18.8339 3.11302 17.6477 3.1174 16.4385V7.66475C3.11791 7.39219 3.204 7.12668 3.36353 6.90568C3.52305 6.68468 3.74795 6.51935 4.00649 6.43304L13.0925 3.39714L22.1785 6.43304C22.4371 6.51935 22.662 6.68468 22.8215 6.90568C22.981 7.12668 23.0671 7.39219 23.0676 7.66475V16.4385C23.072 17.6477 22.7375 18.8339 22.102 19.8626C21.4665 20.8914 20.5555 21.7215 19.4723 22.2588L14.5411 24.7222Z" fill="#2EA146"/>
</svg>
