<svg width="31" height="27" viewBox="0 0 31 27" fill="none" xmlns="http://www.w3.org/2000/svg">
<path d="M14.1815 6.12842H11.1995V10.6014H6.72656V13.5834H11.1995V18.0563H14.1815V13.5834H18.6545V10.6014H14.1815V6.12842Z" fill="#2EA146"/>
<path d="M26.1403 0.164551H5.20485C2.75665 0.164551 0.762695 2.1585 0.762695 4.60721V22.5592C0.762695 25.0084 2.75665 27.0024 5.20485 27.0024H21.6366L30.5825 18.0574V4.60721C30.5825 2.1585 28.5886 0.164551 26.1403 0.164551ZM23.1276 21.9121V21.0086C23.1276 20.2025 23.7826 19.5474 24.5877 19.5474H25.4903L23.1276 21.9121ZM27.6005 16.8209C27.2163 16.6703 26.7462 16.5654 26.1403 16.5654H24.5872C22.1395 16.5654 20.1456 18.5594 20.1456 21.0081V22.5592C20.1456 23.1357 20.2425 23.6154 20.4 24.0199H5.20485C4.39972 24.0204 3.74468 23.3654 3.74468 22.5597V4.60721C3.74468 3.80157 4.39972 3.14653 5.20485 3.14653H26.1409C26.9455 3.14653 27.6005 3.80157 27.6005 4.60721V16.8209Z" fill="#2EA146"/>
</svg>
